<svg width="24" height="24" viewBox="0 0 24 24" fill="none" xmlns="http://www.w3.org/2000/svg">
<path d="M11.1166 13.5906C11.6048 13.1025 12.3961 13.1025 12.8842 13.5906L14.2631 14.9695C14.7509 15.4576 14.7511 16.249 14.2631 16.737L12.8842 18.1159L12.7895 18.2018C12.3313 18.5755 11.6696 18.5754 11.2114 18.2018L11.1166 18.1159L9.73773 16.737C9.2801 16.2794 9.2514 15.5552 9.65179 15.0642L9.73773 14.9695L11.1166 13.5906ZM12.1772 14.2976C12.0796 14.2 11.9213 14.2001 11.8237 14.2976L10.4448 15.6765C10.3472 15.7741 10.3472 15.9324 10.4448 16.03L11.8237 17.4089C11.9213 17.5062 12.0796 17.5063 12.1772 17.4089L13.5561 16.03C13.6535 15.9325 13.6534 15.7741 13.5561 15.6765L12.1772 14.2976ZM7.26313 9.73711C7.75129 9.24906 8.54258 9.24899 9.0307 9.73711L10.4096 11.116C10.8974 11.6041 10.8976 12.3955 10.4096 12.8836L9.0307 14.2624L8.93597 14.3484C8.47782 14.722 7.81607 14.7219 7.35785 14.3484L7.26313 14.2624L5.88422 12.8836C5.4266 12.4259 5.3979 11.7017 5.79829 11.2107L5.88422 11.116L7.26313 9.73711ZM14.9701 9.73711C15.4583 9.24906 16.2496 9.24899 16.7377 9.73711L18.1166 11.116C18.6044 11.6041 18.6046 12.3955 18.1166 12.8836L16.7377 14.2624L16.643 14.3484C16.1848 14.722 15.5231 14.7219 15.0649 14.3484L14.9701 14.2624L13.5912 12.8836C13.1336 12.4259 13.1049 11.7017 13.5053 11.2107L13.5912 11.116L14.9701 9.73711ZM8.32367 10.4441C8.22607 10.3465 8.06779 10.3466 7.97016 10.4441L6.59125 11.823C6.49372 11.9207 6.49365 12.0789 6.59125 12.1765L7.97016 13.5554C8.06778 13.6527 8.22613 13.6529 8.32367 13.5554L9.70257 12.1765C9.80001 12.079 9.79989 11.9206 9.70257 11.823L8.32367 10.4441ZM16.0307 10.4441C15.9331 10.3465 15.7748 10.3466 15.6772 10.4441L14.2983 11.823C14.2007 11.9207 14.2007 12.0789 14.2983 12.1765L15.6772 13.5554C15.7748 13.6527 15.9331 13.6529 16.0307 13.5554L17.4096 12.1765C17.507 12.079 17.5069 11.9206 17.4096 11.823L16.0307 10.4441ZM11.1166 5.88364C11.6048 5.39559 12.3961 5.39553 12.8842 5.88364L14.2631 7.26253C14.7509 7.75067 14.7511 8.54203 14.2631 9.03009L12.8842 10.409L12.7895 10.4949C12.3313 10.8686 11.6696 10.8684 11.2114 10.4949L11.1166 10.409L9.73773 9.03009C9.2801 8.57247 9.2514 7.84822 9.65179 7.35726L9.73773 7.26253L11.1166 5.88364ZM12.1772 6.59067C12.0796 6.49307 11.9213 6.49313 11.8237 6.59067L10.4448 7.96955C10.3472 8.06719 10.3472 8.22547 10.4448 8.32307L11.8237 9.70195C11.9213 9.79927 12.0796 9.7994 12.1772 9.70195L13.5561 8.32307C13.6535 8.22552 13.6534 8.06718 13.5561 7.96955L12.1772 6.59067Z" fill="black" fill-opacity="0.9"/>
</svg>
