<svg width="24" height="24" viewBox="0 0 24 24" fill="none" xmlns="http://www.w3.org/2000/svg">
<path fill-rule="evenodd" clip-rule="evenodd" d="M8 18.5C8 18.7761 8.22386 19 8.5 19C8.77614 19 9 18.7761 9 18.5V11.95C10.1411 11.7183 11 10.7094 11 9.49997C11 8.29049 10.1411 7.28161 9 7.04998V5.49997C9 5.22383 8.77614 4.99997 8.5 4.99997C8.22386 4.99997 8 5.22383 8 5.49997V7.04998C6.85888 7.28161 6 8.29049 6 9.49997C6 10.7094 6.85888 11.7183 8 11.95V18.5ZM7 9.49997C7 10.3284 7.67157 11 8.5 11C9.32843 11 10 10.3284 10 9.49997C10 8.67154 9.32843 7.99997 8.5 7.99997C7.67157 7.99997 7 8.67154 7 9.49997Z" fill="black" fill-opacity="0.9"/>
<path fill-rule="evenodd" clip-rule="evenodd" d="M15 5.49997C15 5.22383 15.2239 4.99997 15.5 4.99997C15.7761 4.99997 16 5.22383 16 5.49997V12.05C17.1411 12.2816 18 13.2905 18 14.5C18 15.7094 17.1411 16.7183 16 16.95V18.5C16 18.7761 15.7761 19 15.5 19C15.2239 19 15 18.7761 15 18.5V16.95C13.8589 16.7183 13 15.7094 13 14.5C13 13.2905 13.8589 12.2816 15 12.05V5.49997ZM14 14.5C14 13.6715 14.6716 13 15.5 13C16.3284 13 17 13.6715 17 14.5C17 15.3284 16.3284 16 15.5 16C14.6716 16 14 15.3284 14 14.5Z" fill="black" fill-opacity="0.9"/>
</svg>
