<svg width="18" height="18" viewBox="0 0 18 18" fill="none" xmlns="http://www.w3.org/2000/svg">
<path fill-rule="evenodd" clip-rule="evenodd" d="M10.2172 0.0820312C9.81887 0.0281343 9.41254 8.92698e-06 9.00042 0C8.69121 0 8.38513 0.0153335 8.08342 0.0458984L7.78362 0.0820312C7.03178 0.183756 6.61019 0.785009 6.50335 1.33398L6.48674 1.44238C6.41366 2.04872 6.06676 2.6104 5.50042 2.9375C4.934 3.26452 4.27401 3.28373 3.71233 3.04395C3.21323 2.83112 2.48125 2.84442 1.98381 3.37207L1.88714 3.48535C1.45265 4.04505 1.08286 4.6579 0.788502 5.3125L0.666432 5.5957C0.360589 6.34421 0.7343 7.0511 1.19768 7.39844C1.68666 7.76493 2.00041 8.34559 2.00042 9C2.00042 9.57279 1.76024 10.0894 1.37249 10.4551L1.19768 10.6016C0.734304 10.9489 0.360615 11.6558 0.666432 12.4043C0.977828 13.1658 1.39061 13.875 1.88714 14.5146C2.38218 15.1523 3.17988 15.1831 3.71233 14.9561C4.27401 14.7163 4.934 14.7355 5.50042 15.0625C6.06675 15.3896 6.41366 15.9513 6.48674 16.5576C6.5563 17.133 6.98194 17.8095 7.78362 17.918C8.18196 17.9719 8.58829 18 9.00042 18C9.41253 18 9.81888 17.9719 10.2172 17.918C11.0188 17.8094 11.4446 17.1329 11.5141 16.5576C11.5872 15.9512 11.9339 15.3896 12.5004 15.0625C13.0668 14.7355 13.7258 14.7163 14.2875 14.9561C14.82 15.1833 15.6175 15.1525 16.1127 14.5146C16.6093 13.8749 17.022 13.1659 17.3334 12.4043C17.6394 11.6557 17.2656 10.9489 16.8022 10.6016C16.3134 10.235 16.0004 9.65426 16.0004 9C16.0004 8.34574 16.3134 7.76495 16.8022 7.39844C17.2656 7.05108 17.6394 6.34429 17.3334 5.5957C17.0609 4.92939 16.7112 4.30311 16.2953 3.72852L16.1127 3.48535L16.017 3.37207C15.5194 2.84405 14.7867 2.83088 14.2875 3.04395C13.7258 3.28372 13.0668 3.26452 12.5004 2.9375C11.9339 2.61042 11.5872 2.04882 11.5141 1.44238C11.4446 0.867088 11.0188 0.190591 10.2172 0.0820312ZM7.91741 1.07227C8.27149 1.02436 8.6332 1 9.00042 1C9.36757 1.00001 9.7294 1.02436 10.0834 1.07227C10.3251 1.10518 10.4917 1.32027 10.5209 1.5625C10.6301 2.46795 11.1498 3.31261 12.0004 3.80371C12.8508 4.29467 13.8415 4.32184 14.6801 3.96387C14.9043 3.86816 15.1732 3.90609 15.3227 4.09863C15.7643 4.66748 16.131 5.29728 16.4076 5.97363C16.5 6.19944 16.3978 6.45133 16.2026 6.59766C15.4725 7.14486 15.0004 8.0174 15.0004 9C15.0004 9.9826 15.4725 10.8551 16.2026 11.4023C16.3978 11.5487 16.5 11.8006 16.4076 12.0264C16.131 12.7027 15.7643 13.3325 15.3227 13.9014C15.1732 14.0939 14.9043 14.1318 14.6801 14.0361C13.8415 13.6782 12.8508 13.7053 12.0004 14.1963C11.1498 14.6874 10.6301 15.532 10.5209 16.4375C10.4917 16.6797 10.3251 16.8948 10.0834 16.9277C9.72941 16.9756 9.36756 17 9.00042 17C8.63319 17 8.2715 16.9756 7.91741 16.9277C7.67547 16.895 7.50815 16.6799 7.47893 16.4375C7.3698 15.5321 6.8509 14.6874 6.00042 14.1963C5.14995 13.7053 4.15838 13.6781 3.31975 14.0361C3.09565 14.1316 2.82656 14.0938 2.67717 13.9014C2.2356 13.3325 1.86879 12.7027 1.59221 12.0264C1.49993 11.8007 1.60233 11.5487 1.79729 11.4023C2.52736 10.8551 3.00042 9.9826 3.00042 9C3.00041 8.01741 2.52736 7.14486 1.79729 6.59766C1.60233 6.45129 1.49993 6.1993 1.59221 5.97363C1.86879 5.29731 2.2356 4.66746 2.67717 4.09863C2.82656 3.90622 3.09565 3.8684 3.31975 3.96387C4.15838 4.32188 5.14995 4.29473 6.00042 3.80371C6.85091 3.31259 7.3698 2.46788 7.47893 1.5625C7.50815 1.32012 7.67548 1.10501 7.91741 1.07227ZM9.0002 6.5C10.3809 6.5 11.5002 7.61929 11.5002 9C11.5002 10.3807 10.3809 11.5 9.0002 11.5C7.61949 11.5 6.5002 10.3807 6.5002 9C6.5002 7.61929 7.61949 6.5 9.0002 6.5ZM9.0002 12.5C10.9332 12.5 12.5002 10.933 12.5002 9C12.5002 7.067 10.9332 5.5 9.0002 5.5C7.0672 5.5 5.5002 7.067 5.5002 9C5.5002 10.933 7.0672 12.5 9.0002 12.5Z" fill="black" fill-opacity="0.9"/>
</svg>
