<svg width="1920" height="1080" viewBox="0 0 1920 1080" fill="none" xmlns="http://www.w3.org/2000/svg">
<rect width="1920" height="1080" fill="#F40808"/>
<path d="M818.699 497.636C818.009 491.807 815.209 487.281 810.3 484.06C805.391 480.838 799.369 479.227 792.236 479.227C787.02 479.227 782.456 480.071 778.544 481.759C774.67 483.446 771.641 485.766 769.455 488.719C767.307 491.673 766.233 495.028 766.233 498.787C766.233 501.932 766.981 504.636 768.477 506.898C770.011 509.123 771.967 510.983 774.344 512.479C776.722 513.936 779.215 515.144 781.823 516.103C784.431 517.023 786.828 517.771 789.014 518.347L800.98 521.568C804.048 522.374 807.462 523.486 811.22 524.905C815.017 526.324 818.641 528.261 822.093 530.715C825.583 533.131 828.46 536.238 830.722 540.035C832.985 543.832 834.116 548.491 834.116 554.014C834.116 560.381 832.448 566.134 829.112 571.273C825.813 576.412 820.981 580.496 814.614 583.526C808.286 586.556 800.597 588.071 791.545 588.071C783.108 588.071 775.802 586.71 769.627 583.987C763.491 581.263 758.658 577.467 755.13 572.596C751.64 567.725 749.665 562.068 749.205 555.625H763.932C764.315 560.074 765.811 563.756 768.419 566.67C771.065 569.547 774.402 571.695 778.429 573.114C782.494 574.494 786.866 575.185 791.545 575.185C796.991 575.185 801.881 574.303 806.215 572.538C810.549 570.736 813.982 568.243 816.513 565.06C819.044 561.838 820.31 558.08 820.31 553.784C820.31 549.872 819.217 546.689 817.031 544.234C814.844 541.78 811.968 539.786 808.401 538.251C804.835 536.717 800.98 535.375 796.838 534.224L782.341 530.082C773.136 527.436 765.849 523.658 760.48 518.749C755.111 513.84 752.426 507.416 752.426 499.477C752.426 492.881 754.21 487.128 757.776 482.219C761.381 477.271 766.214 473.436 772.273 470.713C778.371 467.952 785.179 466.571 792.696 466.571C800.29 466.571 807.04 467.933 812.946 470.656C818.852 473.34 823.531 477.022 826.983 481.701C830.473 486.38 832.314 491.692 832.506 497.636H818.699ZM869.309 532.844V586H855.733V468.182H869.309V511.443H870.46C872.531 506.879 875.638 503.255 879.78 500.57C883.96 497.847 889.521 496.486 896.463 496.486C902.484 496.486 907.758 497.694 912.283 500.11C916.809 502.488 920.318 506.151 922.811 511.098C925.342 516.007 926.608 522.259 926.608 529.852V586H913.031V530.773C913.031 523.754 911.209 518.327 907.566 514.492C903.961 510.619 898.956 508.682 892.551 508.682C888.102 508.682 884.113 509.621 880.585 511.501C877.095 513.38 874.334 516.122 872.301 519.727C870.307 523.332 869.309 527.705 869.309 532.844ZM977.449 588.071C971.849 588.071 966.767 587.016 962.203 584.907C957.64 582.759 954.015 579.672 951.331 575.645C948.646 571.58 947.304 566.67 947.304 560.918C947.304 555.855 948.301 551.751 950.295 548.607C952.289 545.423 954.955 542.93 958.292 541.128C961.628 539.325 965.31 537.983 969.337 537.101C973.402 536.18 977.487 535.452 981.591 534.915C986.96 534.224 991.313 533.707 994.65 533.362C998.025 532.978 1000.48 532.345 1002.01 531.463C1003.59 530.581 1004.37 529.047 1004.37 526.861V526.401C1004.37 520.724 1002.82 516.314 999.712 513.169C996.644 510.024 991.984 508.452 985.733 508.452C979.251 508.452 974.169 509.871 970.488 512.709C966.806 515.547 964.217 518.577 962.721 521.798L949.835 517.196C952.136 511.827 955.204 507.646 959.039 504.655C962.913 501.625 967.132 499.516 971.696 498.327C976.298 497.099 980.824 496.486 985.272 496.486C988.11 496.486 991.37 496.831 995.052 497.521C998.772 498.173 1002.36 499.535 1005.81 501.606C1009.3 503.677 1012.2 506.803 1014.5 510.983C1016.8 515.163 1017.95 520.763 1017.95 527.781V586H1004.37V574.034H1003.68C1002.76 575.952 1001.23 578.004 999.079 580.19C996.931 582.376 994.074 584.236 990.507 585.77C986.941 587.304 982.588 588.071 977.449 588.071ZM979.52 575.875C984.889 575.875 989.414 574.82 993.096 572.711C996.816 570.602 999.616 567.879 1001.5 564.542C1003.41 561.205 1004.37 557.696 1004.37 554.014V541.588C1003.8 542.278 1002.53 542.911 1000.57 543.487C998.657 544.023 996.433 544.503 993.902 544.925C991.409 545.308 988.973 545.653 986.596 545.96C984.256 546.229 982.358 546.459 980.9 546.651C977.372 547.111 974.074 547.859 971.005 548.894C967.975 549.891 965.521 551.406 963.642 553.439C961.801 555.433 960.88 558.156 960.88 561.608C960.88 566.325 962.625 569.892 966.115 572.308C969.644 574.686 974.112 575.875 979.52 575.875ZM1042.73 586V497.636H1055.85V510.983H1056.77C1058.38 506.611 1061.29 503.063 1065.51 500.34C1069.73 497.617 1074.48 496.256 1079.78 496.256C1080.77 496.256 1082.02 496.275 1083.52 496.313C1085.01 496.352 1086.14 496.409 1086.91 496.486V510.293C1086.45 510.178 1085.4 510.005 1083.75 509.775C1082.14 509.506 1080.43 509.372 1078.63 509.372C1074.33 509.372 1070.5 510.273 1067.12 512.076C1063.78 513.84 1061.14 516.295 1059.18 519.44C1057.26 522.546 1056.31 526.094 1056.31 530.082V586H1042.73ZM1115.66 553.784L1115.43 536.986H1118.19L1156.85 497.636H1173.65L1132.46 539.287H1131.31L1115.66 553.784ZM1103 586V468.182H1116.58V586H1103ZM1159.15 586L1124.63 542.278L1134.3 532.844L1176.41 586H1159.15Z" fill="white"/>
</svg>
